<svg width="44" height="44" viewBox="0 0 44 44" fill="none" xmlns="http://www.w3.org/2000/svg">
<rect width="44" height="44" rx="2" fill="#E34789"/>
<path fill-rule="evenodd" clip-rule="evenodd" d="M19.6912 14.9552C19.0062 14.1941 18.2674 13.8652 17.582 13.8771L17.5691 13.8772C17.1122 13.8772 16.6739 14.0588 16.3508 14.3819C16.0276 14.705 15.8461 15.1433 15.8461 15.6003C15.8461 16.0572 16.0276 16.4955 16.3508 16.8186C16.6739 17.1418 17.1122 17.3233 17.5691 17.3233C17.5702 17.3233 17.5712 17.3233 17.5723 17.3233H21.0154C20.6797 16.3525 20.2215 15.5445 19.6912 14.9552ZM21.2614 18.8002V21.2617H15.1118C15.1104 21.2617 15.109 21.2617 15.1076 21.2617C15.1063 21.2617 15.1049 21.2617 15.1035 21.2617H14.1231C13.9871 21.2617 13.8769 21.1515 13.8769 21.0155V19.0463C13.8769 18.9104 13.9871 18.8002 14.1231 18.8002H21.2614ZM14.3692 22.7386H14.1231C13.1715 22.7386 12.4 21.9671 12.4 21.0155V19.0463C12.4 18.0947 13.1715 17.3233 14.1231 17.3233H14.8727C14.5465 16.8127 14.3692 16.2156 14.3692 15.6003C14.3692 14.7516 14.7063 13.9377 15.3064 13.3376C15.905 12.739 16.7163 12.4021 17.5626 12.4003C18.7744 12.3814 19.8949 12.9738 20.789 13.9673C21.2598 14.4904 21.6659 15.1206 21.9998 15.8278C22.3337 15.1206 22.7398 14.4904 23.2106 13.9673C24.1047 12.9738 25.2252 12.3814 26.437 12.4003C27.2833 12.4021 28.0946 12.739 28.6932 13.3376C29.2933 13.9377 29.6304 14.7516 29.6304 15.6003C29.6304 16.2156 29.4531 16.8127 29.1269 17.3233H29.8765C30.8281 17.3233 31.5996 18.0947 31.5996 19.0463V21.0155C31.5996 21.9671 30.8281 22.7386 29.8765 22.7386H29.6304V28.8923C29.6304 29.6104 29.3451 30.2991 28.8373 30.8068C28.3296 31.3146 27.6409 31.5999 26.9228 31.5999H22.0041C22.0027 31.5999 22.0012 31.5999 21.9998 31.5999C21.9984 31.5999 21.9969 31.5999 21.9955 31.5999H17.0768C16.3587 31.5999 15.67 31.3146 15.1623 30.8068C14.6545 30.2991 14.3692 29.6104 14.3692 28.8923V22.7386ZM22.7382 30.123H26.9228C27.2492 30.123 27.5622 29.9933 27.793 29.7625C28.0238 29.5317 28.1535 29.2187 28.1535 28.8923V22.7386H22.7382V30.123ZM21.2614 22.7386V30.123H17.0768C16.7504 30.123 16.4374 29.9933 16.2066 29.7625C15.9758 29.5317 15.8461 29.2187 15.8461 28.8923V22.7386H21.2614ZM22.7382 21.2617V18.8002H29.8765C30.0125 18.8002 30.1227 18.9104 30.1227 19.0463V21.0155C30.1227 21.1515 30.0125 21.2617 29.8765 21.2617H28.8961C28.8947 21.2617 28.8933 21.2617 28.8919 21.2617C28.8906 21.2617 28.8892 21.2617 28.8878 21.2617H22.7382ZM26.4273 17.3233H22.9842C23.3199 16.3525 23.7781 15.5445 24.3084 14.9552C24.9934 14.1941 25.7322 13.8652 26.4176 13.8771L26.4305 13.8772C26.8874 13.8772 27.3257 14.0588 27.6488 14.3819C27.972 14.705 28.1535 15.1433 28.1535 15.6003C28.1535 16.0572 27.972 16.4955 27.6488 16.8186C27.3257 17.1418 26.8874 17.3233 26.4305 17.3233C26.4294 17.3233 26.4284 17.3233 26.4273 17.3233Z" fill="white"/>
</svg>
