<svg width="21" height="20" viewBox="0 0 21 20" fill="none" xmlns="http://www.w3.org/2000/svg">
<path d="M14.9381 7.29618L13.3125 8.73286V10.7663L14.9381 12.2029C15.0379 12.2912 15.1633 12.3503 15.2987 12.3728C15.4341 12.3953 15.5736 12.3802 15.6999 12.3295C15.8262 12.2787 15.9338 12.1945 16.0094 12.0872C16.0849 11.98 16.1251 11.8544 16.125 11.7261V7.77303C16.1251 7.64468 16.0849 7.51911 16.0094 7.41187C15.9338 7.30463 15.8262 7.22042 15.6999 7.16967C15.5736 7.11892 15.4341 7.10385 15.2987 7.12634C15.1633 7.14883 15.0379 7.20788 14.9381 7.29618Z" fill="white"/>
<path fill-rule="evenodd" clip-rule="evenodd" d="M5.5 7.75C5.5 6.64543 6.39543 5.75 7.5 5.75H10.5C11.6046 5.75 12.5 6.64543 12.5 7.75V11.75C12.5 12.8546 11.6046 13.75 10.5 13.75H7.5C6.39543 13.75 5.5 12.8546 5.5 11.75V7.75ZM7.5 7.08H10.5C10.87 7.08 11.17 7.37997 11.17 7.75V11.75C11.17 12.12 10.87 12.42 10.5 12.42H7.5C7.12997 12.42 6.83 12.12 6.83 11.75V7.75C6.83 7.37997 7.12997 7.08 7.5 7.08Z" fill="white"/>
<path fill-rule="evenodd" clip-rule="evenodd" d="M10.5 1C15.6778 1 19.875 4.91718 19.875 9.74956C19.875 14.5819 15.6778 18.4991 10.5 18.4991C9.00375 18.501 7.5289 18.1674 6.19969 17.5262L2.61282 18.4597C2.4127 18.5119 2.20133 18.5134 2.00037 18.4642C1.79941 18.415 1.61608 18.3168 1.46917 18.1797C1.32226 18.0426 1.21705 17.8715 1.16431 17.6839C1.11158 17.4963 1.11322 17.2991 1.16907 17.1123L2.17032 13.7674C1.48159 12.5257 1.12306 11.1477 1.12501 9.74956C1.12501 4.91718 5.32219 1 10.5 1ZM4.16962 5.23446C3.10747 6.53095 2.53176 8.11752 2.53126 9.74956C2.52902 11.0166 2.87539 12.263 3.53719 13.3693L3.67876 13.6055L2.63532 17.0913L6.37219 16.1192L6.62532 16.2505C8.15338 17.044 9.9187 17.3465 11.6491 17.1111C13.3795 16.8758 14.979 16.1157 16.2008 14.9482C17.4227 13.7806 18.1991 12.2704 18.4104 10.6503C18.6217 9.03021 18.2561 7.39025 17.37 5.98324C16.4839 4.57624 15.1265 3.48032 13.5071 2.86445C11.8877 2.24858 10.0962 2.14696 8.40878 2.57525C6.72137 3.00354 5.23176 3.93797 4.16962 5.23446Z" fill="white"/>
</svg>
