<svg width="10" height="11" viewBox="0 0 10 11" fill="none" xmlns="http://www.w3.org/2000/svg">
<g id="Icon/First">
<path id="Vector (Stroke)" fill-rule="evenodd" clip-rule="evenodd" d="M4.09811 2.74818C3.83052 2.45086 3.54196 2.32237 3.27421 2.32704L3.26918 2.32708C3.09067 2.32708 2.91948 2.39799 2.79326 2.52422C2.66703 2.65044 2.59612 2.82163 2.59612 3.00014C2.59612 3.17865 2.66703 3.34984 2.79326 3.47607C2.91948 3.60229 3.09067 3.6732 3.26918 3.6732C3.26959 3.6732 3.27001 3.6732 3.27042 3.67321H4.61537C4.48423 3.29397 4.30526 2.97835 4.09811 2.74818ZM4.71146 4.25011V5.21163H2.30928C2.30874 5.21163 2.3082 5.21163 2.30767 5.21163C2.30713 5.21163 2.30659 5.21163 2.30606 5.21163H1.92306C1.86996 5.21163 1.82691 5.16858 1.82691 5.11548V4.34627C1.82691 4.29316 1.86996 4.25011 1.92306 4.25011H4.71146ZM2.01921 5.78854H1.92306C1.55134 5.78854 1.25 5.4872 1.25 5.11548V4.34627C1.25 3.97455 1.55134 3.67321 1.92306 3.67321H2.21589C2.08845 3.47377 2.01921 3.24052 2.01921 3.00014C2.01921 2.66863 2.1509 2.35069 2.38532 2.11628C2.61914 1.88246 2.93605 1.75084 3.26665 1.75017C3.73999 1.74276 4.17767 1.97419 4.52692 2.36225C4.71085 2.56661 4.86947 2.81279 4.99991 3.08901C5.13036 2.81279 5.28897 2.56661 5.4729 2.36225C5.82215 1.97419 6.25983 1.74276 6.73317 1.75017C7.06377 1.75084 7.38069 1.88246 7.6145 2.11628C7.84892 2.35069 7.98061 2.66863 7.98061 3.00014C7.98061 3.24052 7.91137 3.47377 7.78393 3.67321H8.07677C8.44849 3.67321 8.74983 3.97455 8.74983 4.34627V5.11548C8.74983 5.4872 8.44849 5.78854 8.07677 5.78854H7.98061V8.19233C7.98061 8.47284 7.86918 8.74186 7.67083 8.94021C7.47248 9.13856 7.20345 9.25 6.92294 9.25H5.0016C5.00104 9.25 5.00047 9.25 4.99991 9.25C4.99935 9.25 4.99879 9.25 4.99823 9.25H3.07688C2.79637 9.25 2.52735 9.13856 2.32899 8.94021C2.13064 8.74186 2.01921 8.47284 2.01921 8.19233V5.78854ZM5.28837 8.67309H6.92294C7.05045 8.67309 7.17273 8.62243 7.26289 8.53227C7.35305 8.44211 7.4037 8.31983 7.4037 8.19233V5.78854H5.28837V8.67309ZM4.71146 5.78854V8.67309H3.07688C2.94937 8.67309 2.82709 8.62243 2.73693 8.53227C2.64677 8.44211 2.59612 8.31983 2.59612 8.19233V5.78854H4.71146ZM5.28837 5.21163V4.25011H8.07677C8.12987 4.25011 8.17292 4.29316 8.17292 4.34627V5.11548C8.17292 5.16858 8.12987 5.21163 8.07677 5.21163H7.69377C7.69323 5.21163 7.69269 5.21163 7.69216 5.21163C7.69162 5.21163 7.69108 5.21163 7.69055 5.21163H5.28837ZM6.7294 3.67321H5.38446C5.51559 3.29396 5.69456 2.97835 5.90171 2.74818C6.1693 2.45086 6.45787 2.32237 6.72562 2.32704L6.73064 2.32708C6.90915 2.32708 7.08034 2.39799 7.20657 2.52422C7.33279 2.65044 7.4037 2.82163 7.4037 3.00014C7.4037 3.17865 7.33279 3.34984 7.20657 3.47607C7.08034 3.60229 6.90915 3.6732 6.73064 3.6732C6.73023 3.6732 6.72982 3.6732 6.7294 3.67321Z" fill="white"/>
</g>
</svg>
