<svg width="32" height="31" viewBox="0 0 32 31" fill="none" xmlns="http://www.w3.org/2000/svg">
    <g filter="url(#filter0_d_1_4260)">
        <path d="M26.9558 9.7741L20.3466 9.14914C19.9299 9.11126 19.5699 8.84613 19.3997 8.44843L17.0324 2.71018C16.6536 1.76327 15.3089 1.76327 14.9301 2.71018L12.5818 8.44843C12.4303 8.84613 12.0515 9.11126 11.6349 9.14914L5.02546 9.7741C4.04068 9.86879 3.64298 11.0998 4.38156 11.7626L9.36229 16.1373C9.68424 16.4214 9.8168 16.838 9.72211 17.2546L8.226 23.3904C7.99874 24.3564 9.04034 25.1516 9.91149 24.6405L15.4225 21.4019C15.7823 21.1936 16.2179 21.1936 16.5777 21.4019L22.0889 24.6405C22.96 25.1516 24.0016 24.3754 23.7742 23.3904L22.297 17.2546C22.2023 16.838 22.3349 16.4214 22.6568 16.1373L27.6376 11.7626C28.3572 11.0998 27.9406 9.86879 26.9558 9.7741Z"
              fill="#C8C8C8" fill-opacity="0.3"/>
        <path d="M18.4753 8.82979L18.4752 8.82982L18.4804 8.84198C18.7901 9.56537 19.46 10.0718 20.2538 10.1448C20.2546 10.1449 20.2553 10.145 20.256 10.145L26.8601 10.7695C26.8602 10.7695 26.8603 10.7695 26.8605 10.7695C26.9009 10.7735 26.9223 10.786 26.9374 10.7986C26.9566 10.8147 26.9769 10.8416 26.9894 10.8782C27.0019 10.9148 27.0018 10.947 26.997 10.9684C26.9937 10.9834 26.987 11.0007 26.9651 11.0223L21.9969 15.386L21.9952 15.3875C21.3971 15.9152 21.1466 16.7052 21.3219 17.4763L21.3218 17.4763L21.3248 17.4887L22.8005 23.6183C22.8109 23.6656 22.8042 23.693 22.7976 23.7098C22.7892 23.7315 22.7725 23.7549 22.7471 23.7739C22.7216 23.7927 22.6962 23.8007 22.6767 23.8021C22.6624 23.8032 22.6369 23.8025 22.5955 23.7784C22.5955 23.7783 22.5955 23.7783 22.5955 23.7783C22.5953 23.7782 22.5951 23.7781 22.5949 23.778L17.0843 20.5397L17.0844 20.5397L17.0787 20.5365C16.409 20.1487 15.5912 20.1487 14.9214 20.5365L14.9214 20.5365L14.9158 20.5398L9.40543 23.778C9.40524 23.7781 9.40506 23.7782 9.40487 23.7783C9.36633 23.8008 9.34355 23.8011 9.33041 23.8C9.3116 23.7985 9.28473 23.7903 9.25684 23.7694C9.2288 23.7484 9.21079 23.7226 9.20207 23.7004C9.19534 23.6832 9.19033 23.6599 9.19887 23.6218L10.6936 17.4915L10.6955 17.4839L10.6972 17.4763C10.8725 16.7052 10.622 15.9152 10.0239 15.3875L10.0222 15.386L5.04702 11.0161C5.01692 10.9884 5.00782 10.9659 5.00367 10.9488C4.99822 10.9265 4.99805 10.896 5.00869 10.8631C5.01934 10.8302 5.03669 10.8074 5.05178 10.7947C5.06281 10.7853 5.08087 10.7734 5.12086 10.7695C5.12097 10.7695 5.12107 10.7695 5.12117 10.7695L11.7254 10.145C11.7261 10.145 11.7268 10.1449 11.7275 10.1448C12.4892 10.0748 13.2103 9.59152 13.5112 8.81766L15.8556 3.08893L15.8556 3.08894L15.8586 3.08157C15.8747 3.04132 15.8921 3.02755 15.9035 3.02023C15.92 3.00973 15.9469 3 15.9813 3C16.0157 3 16.0425 3.00973 16.059 3.02023C16.0704 3.02755 16.0878 3.04132 16.1039 3.08157L16.1039 3.08159L16.108 3.09154L18.4753 8.82979Z"
              stroke="white" stroke-width="2"/>
    </g>
    <defs>
        <filter id="filter0_d_1_4260" x="0" y="0" width="32" height="30.8022" filterUnits="userSpaceOnUse"
                color-interpolation-filters="sRGB">
            <feFlood flood-opacity="0" result="BackgroundImageFix"/>
            <feColorMatrix in="SourceAlpha" type="matrix" values="0 0 0 0 0 0 0 0 0 0 0 0 0 0 0 0 0 0 127 0"
                           result="hardAlpha"/>
            <feOffset dy="2"/>
            <feGaussianBlur stdDeviation="2"/>
            <feColorMatrix type="matrix" values="0 0 0 0 0 0 0 0 0 0 0 0 0 0 0 0 0 0 0.5 0"/>
            <feBlend mode="normal" in2="BackgroundImageFix" result="effect1_dropShadow_1_4260"/>
            <feBlend mode="normal" in="SourceGraphic" in2="effect1_dropShadow_1_4260" result="shape"/>
        </filter>
    </defs>
</svg>
